<svg xmlns="http://www.w3.org/2000/svg" width="1400" height="620" viewBox="0 0 1400 620" role="img" aria-labelledby="title desc">
  <title id="title">Codex Switcher Web</title>
  <desc id="desc">A self-hosted control plane for Codex accounts, workspaces, quotas, authentication, and switching</desc>
  <defs>
    <linearGradient id="bg" x1="0" y1="0" x2="1" y2="1">
      <stop offset="0" stop-color="#07142f"/>
      <stop offset="0.55" stop-color="#102b5c"/>
      <stop offset="1" stop-color="#0a6f73"/>
    </linearGradient>
    <linearGradient id="accent" x1="0" y1="0" x2="1" y2="0">
      <stop offset="0" stop-color="#54a8ff"/>
      <stop offset="1" stop-color="#53e0c2"/>
    </linearGradient>
    <filter id="shadow" x="-20%" y="-20%" width="140%" height="140%">
      <feDropShadow dx="0" dy="18" stdDeviation="22" flood-color="#020817" flood-opacity="0.4"/>
    </filter>
  </defs>
  <rect width="1400" height="620" rx="32" fill="url(#bg)"/>
  <circle cx="1220" cy="82" r="210" fill="#3cd9bd" opacity="0.08"/>
  <circle cx="180" cy="590" r="260" fill="#4b8fff" opacity="0.1"/>
  <g transform="translate(90 78)">
    <rect x="0" y="0" width="64" height="64" rx="18" fill="url(#accent)"/>
    <path d="M18 32h28M32 18v28" stroke="#06172f" stroke-width="7" stroke-linecap="round"/>
    <text x="88" y="29" fill="#85f2df" font-family="Inter,Segoe UI,sans-serif" font-size="18" font-weight="700" letter-spacing="3">SELF-HOSTED CONTROL PLANE</text>
    <text x="88" y="78" fill="#ffffff" font-family="Inter,Segoe UI,sans-serif" font-size="54" font-weight="800">Codex Switcher Web</text>
    <text x="88" y="116" fill="#c8dbf7" font-family="Inter,Segoe UI,sans-serif" font-size="23">Accounts · Workspaces · Quotas · Auth · Switching</text>
  </g>
  <g transform="translate(90 250)" filter="url(#shadow)">
    <rect width="1220" height="285" rx="24" fill="#f7faff"/>
    <rect width="1220" height="56" rx="24" fill="#e9f1ff"/>
    <rect y="32" width="1220" height="24" fill="#e9f1ff"/>
    <circle cx="30" cy="28" r="7" fill="#ff6b6b"/>
    <circle cx="54" cy="28" r="7" fill="#ffc857"/>
    <circle cx="78" cy="28" r="7" fill="#57d68d"/>
    <text x="105" y="35" fill="#31517f" font-family="Inter,Segoe UI,sans-serif" font-size="16" font-weight="700">OPERATIONS DASHBOARD</text>
    <g transform="translate(32 82)">
      <rect width="244" height="72" rx="15" fill="#ffffff" stroke="#cbdcf5"/>
      <text x="20" y="28" fill="#6a7f9e" font-family="Inter,Segoe UI,sans-serif" font-size="14">ACCOUNTS</text>
      <text x="20" y="58" fill="#142f59" font-family="Inter,Segoe UI,sans-serif" font-size="28" font-weight="800">12</text>
      <rect x="264" width="244" height="72" rx="15" fill="#ffffff" stroke="#cbdcf5"/>
      <text x="284" y="28" fill="#6a7f9e" font-family="Inter,Segoe UI,sans-serif" font-size="14">AUTHENTICATED</text>
      <text x="284" y="58" fill="#142f59" font-family="Inter,Segoe UI,sans-serif" font-size="28" font-weight="800">10</text>
      <rect x="528" width="244" height="72" rx="15" fill="#ffffff" stroke="#cbdcf5"/>
      <text x="548" y="28" fill="#6a7f9e" font-family="Inter,Segoe UI,sans-serif" font-size="14">5H QUOTA</text>
      <text x="548" y="58" fill="#0f8f77" font-family="Inter,Segoe UI,sans-serif" font-size="28" font-weight="800">78%</text>
      <rect x="792" width="364" height="72" rx="15" fill="#eafff9" stroke="#8adfce"/>
      <text x="812" y="28" fill="#34776c" font-family="Inter,Segoe UI,sans-serif" font-size="14">NEXT SWITCH TARGET</text>
      <text x="812" y="57" fill="#0b6e61" font-family="Inter,Segoe UI,sans-serif" font-size="20" font-weight="800">Research Workspace</text>
    </g>
    <g transform="translate(32 174)">
      <rect width="1156" height="78" rx="16" fill="#ffffff" stroke="#cbdcf5"/>
      <circle cx="36" cy="39" r="10" fill="#54a8ff"/>
      <text x="60" y="32" fill="#18365f" font-family="Inter,Segoe UI,sans-serif" font-size="17" font-weight="700">Active workspace</text>
      <text x="60" y="57" fill="#68809f" font-family="Inter,Segoe UI,sans-serif" font-size="14">Encrypted profile · live quota sync · drift detection</text>
      <rect x="780" y="19" width="164" height="40" rx="20" fill="#eaf2ff"/>
      <text x="862" y="45" text-anchor="middle" fill="#2167c5" font-family="Inter,Segoe UI,sans-serif" font-size="14" font-weight="700">SYNC HEALTHY</text>
      <rect x="960" y="19" width="168" height="40" rx="20" fill="url(#accent)"/>
      <text x="1044" y="45" text-anchor="middle" fill="#08243e" font-family="Inter,Segoe UI,sans-serif" font-size="14" font-weight="800">SWITCH SAFELY</text>
    </g>
  </g>
  <text x="700" y="586" text-anchor="middle" fill="#a9c8ea" font-family="Inter,Segoe UI,sans-serif" font-size="16">Local-first · Privacy-aware · Docker-ready</text>
</svg>
